<?xml version="1.0" standalone="no"?>
<!DOCTYPE svg PUBLIC "-//W3C//DTD SVG 20010904//EN"
 "http://www.w3.org/TR/2001/REC-SVG-20010904/DTD/svg10.dtd">
<svg version="1.0" xmlns="http://www.w3.org/2000/svg"
 width="696.000000pt" height="696.000000pt" viewBox="0 0 696.000000 696.000000"
 preserveAspectRatio="xMidYMid meet">
<metadata>
Created by potrace 1.14, written by Peter Selinger 2001-2017
</metadata>
<g transform="translate(0.000000,696.000000) scale(0.100000,-0.100000)"
fill="#000000" stroke="none">
<path d="M4505 6569 c-234 -40 -316 -71 -425 -157 -63 -50 -180 -172 -180
-188 0 -3 -6 -12 -12 -19 -27 -30 -36 -43 -75 -110 -97 -167 -191 -374 -305
-675 -38 -102 -71 -189 -72 -195 -2 -5 -6 -17 -9 -25 -3 -8 -11 -32 -17 -53
-7 -21 -14 -36 -17 -34 -4 4 -26 79 -37 127 -10 39 -68 203 -96 270 -56 136
-121 245 -210 353 -28 36 -95 98 -146 138 -42 32 -217 132 -227 128 -1 -1 -29
7 -62 16 -148 43 -311 50 -510 20 -24 -3 -158 -42 -200 -57 -81 -30 -281 -133
-305 -158 -3 -3 -16 -11 -30 -19 -88 -49 -350 -289 -460 -420 -25 -29 -50 -59
-55 -65 -6 -6 -26 -31 -45 -56 -38 -49 -36 -46 -81 -105 -40 -52 -208 -306
-244 -370 -16 -27 -34 -53 -40 -57 -5 -4 -6 -8 -2 -8 5 0 0 -12 -11 -27 -45
-65 -275 -516 -275 -540 0 -7 -3 -13 -7 -13 -7 0 -35 -71 -32 -82 1 -5 -2 -8
-6 -8 -4 0 -16 -24 -27 -52 -10 -29 -21 -57 -25 -63 -7 -10 -103 -253 -106
-267 -1 -5 -2 -9 -4 -10 -1 -2 -3 -10 -5 -18 -2 -8 -18 -53 -35 -100 -106
-290 -125 -391 -94 -510 17 -64 67 -151 108 -189 16 -14 36 -34 44 -43 9 -10
22 -18 29 -18 7 0 13 -4 13 -9 0 -5 8 -11 17 -14 10 -3 45 -15 77 -27 247 -86
510 77 572 355 4 18 85 249 94 270 5 11 25 63 45 115 20 52 42 106 48 120 5
14 11 27 12 30 0 3 11 26 23 52 12 26 22 49 22 52 0 4 80 176 109 236 65 129
117 225 124 228 4 2 7 8 7 14 0 14 131 232 142 236 4 2 8 10 8 17 0 8 6 20 13
27 6 7 31 41 55 76 23 35 47 69 52 75 5 7 42 53 82 102 39 50 101 121 137 159
73 76 203 186 220 186 6 0 11 5 11 10 0 6 5 10 11 10 6 0 23 8 37 19 66 45
213 77 247 53 57 -39 117 -201 209 -564 30 -117 59 -228 65 -246 5 -18 10 -35
10 -37 1 -3 1 -6 2 -7 0 -2 2 -10 4 -18 4 -23 45 -151 58 -185 7 -16 12 -32
13 -35 1 -8 24 -62 42 -100 16 -35 53 -94 72 -117 5 -7 10 -16 10 -20 0 -15
126 -140 173 -172 57 -39 146 -80 184 -87 16 -2 42 -7 58 -11 114 -25 303 20
405 96 57 42 59 44 104 88 97 95 184 237 257 418 13 33 26 62 29 65 3 3 6 10
7 15 1 6 25 78 53 160 28 83 53 157 55 166 2 12 43 130 71 209 3 8 5 16 5 18
-1 1 6 19 15 40 8 20 25 64 36 97 11 33 26 74 33 90 7 17 29 73 50 125 21 52
63 147 93 210 58 123 57 123 76 40 2 -8 9 -33 14 -55 24 -88 40 -191 58 -360
20 -189 24 -671 9 -1040 -9 -226 -14 -1034 -6 -1049 2 -5 6 -55 7 -110 2 -56
6 -130 9 -166 3 -36 8 -100 11 -143 6 -90 10 -144 18 -204 3 -24 8 -62 11 -85
3 -24 7 -56 10 -73 2 -16 7 -48 9 -70 3 -22 8 -53 11 -70 13 -68 15 -82 21
-115 5 -36 14 -80 39 -188 33 -137 46 -186 54 -196 5 -6 10 -14 10 -19 1 -14
13 -62 18 -77 3 -8 7 -19 9 -25 2 -9 13 -36 56 -150 21 -55 121 -250 129 -253
5 -2 9 -8 9 -14 0 -8 75 -123 90 -138 3 -3 18 -23 35 -45 28 -38 160 -173 201
-205 52 -42 153 -110 162 -110 6 0 12 -3 14 -7 8 -20 236 -115 301 -127 6 -1
21 -5 32 -9 11 -3 36 -8 55 -11 19 -3 46 -8 60 -11 138 -29 471 -14 610 26
196 58 328 225 328 417 0 35 -4 80 -9 100 -5 20 -12 45 -14 55 -8 37 -59 112
-109 163 -46 46 -135 99 -191 113 -33 8 -196 6 -245 -3 -67 -12 -195 -14 -253
-4 -152 27 -281 146 -372 343 -35 76 -106 275 -98 275 3 0 0 7 -7 15 -7 8 -10
15 -7 15 3 0 1 16 -5 36 -14 51 -34 138 -43 189 -9 51 -35 216 -41 261 -13
111 -12 103 -29 289 -5 49 -15 238 -20 360 -5 112 -5 709 0 870 2 66 6 185 10
265 6 160 7 648 0 750 -11 184 -27 359 -40 435 -3 17 -7 46 -10 65 -3 30 -15
95 -29 165 -2 11 -9 40 -15 65 -7 25 -14 56 -17 70 -23 110 -162 440 -185 440
-5 0 -9 4 -9 10 0 18 -69 104 -132 166 -114 110 -234 174 -378 201 -43 8 -163
9 -205 2z"/>
</g>
</svg>
