<svg width="32" height="32" viewBox="0 0 32 32" fill="none" xmlns="http://www.w3.org/2000/svg">
<rect width="32" height="32" rx="16" fill="#00B368"/>
<path d="M11.379 10.6599C11.379 10.2439 11.563 9.87585 11.931 9.55585C12.299 9.23585 12.795 8.98785 13.419 8.81185C14.059 8.63585 14.787 8.54785 15.603 8.54785C16.739 8.54785 17.699 8.73185 18.483 9.09985C19.283 9.45185 19.891 9.95585 20.307 10.6119C20.723 11.2519 20.931 11.9959 20.931 12.8439C20.931 13.7079 20.691 14.5559 20.211 15.3879C19.731 16.2039 18.947 17.0759 17.859 18.0039L14.331 21.0999H20.787C20.867 21.2119 20.939 21.3719 21.003 21.5799C21.083 21.7879 21.123 22.0119 21.123 22.2519C21.123 22.6679 21.019 22.9719 20.811 23.1639C20.619 23.3559 20.371 23.4519 20.067 23.4519H11.667C11.411 23.2759 11.211 23.0519 11.067 22.7799C10.939 22.5079 10.875 22.2039 10.875 21.8679C10.875 21.4679 10.955 21.1319 11.115 20.8599C11.275 20.5719 11.467 20.3239 11.691 20.1159L15.507 16.6119C16.435 15.7959 17.067 15.1239 17.403 14.5959C17.739 14.0519 17.907 13.5159 17.907 12.9879C17.907 12.3799 17.683 11.8919 17.235 11.5239C16.803 11.1399 16.163 10.9479 15.315 10.9479C14.643 10.9479 14.043 11.0599 13.515 11.2839C12.987 11.5079 12.547 11.7399 12.195 11.9799C11.971 11.8519 11.779 11.6759 11.619 11.4519C11.459 11.2279 11.379 10.9639 11.379 10.6599Z" fill="white"/>
</svg>
