<svg width="70" height="39" viewBox="0 0 70 39" fill="none" xmlns="http://www.w3.org/2000/svg">
<path fill-rule="evenodd" clip-rule="evenodd" d="M67.3815 3.93104C68.5832 4.13455 69.3924 5.27367 69.1889 6.47534C69.0544 7.26924 68.9659 8.27599 68.8586 9.49614C68.8274 9.85102 68.7946 10.224 68.7586 10.615C68.6061 12.2727 68.4015 14.1639 68.0028 15.938C67.6112 17.6808 66.9862 19.5356 65.8565 20.9842C64.6448 22.5381 62.8838 23.5691 60.5651 23.5341C58.6155 23.5046 56.9698 22.9571 55.7611 21.7855C54.5864 20.647 54.1056 19.1879 53.9014 17.9032C53.6984 16.6254 53.7347 15.288 53.7855 14.1863C53.7972 13.9323 53.8093 13.6939 53.8208 13.4693C53.8636 12.6265 53.8966 11.9779 53.8615 11.4274C53.7839 10.2111 54.707 9.16221 55.9233 9.08464C57.1397 9.00707 58.1886 9.9302 58.2661 11.1465C58.3191 11.977 58.2678 12.9608 58.2226 13.8287C58.2125 14.0225 58.2027 14.2105 58.1944 14.3897C58.1442 15.4772 58.1344 16.4181 58.2603 17.2105C58.3851 17.9959 58.6083 18.3987 58.8328 18.6162C59.0232 18.8008 59.4718 19.1035 60.6318 19.121C61.4226 19.133 61.9221 18.8522 62.3761 18.2701C62.9122 17.5826 63.358 16.4773 63.6966 14.9704C64.0282 13.4948 64.2131 11.8469 64.3636 10.2106C64.3933 9.88765 64.422 9.55995 64.4507 9.23226C64.5605 7.9784 64.6702 6.72478 64.8372 5.73837C65.0408 4.5367 66.1799 3.72753 67.3815 3.93104Z" fill="#00B368"/>
<path fill-rule="evenodd" clip-rule="evenodd" d="M22.6249 4.2158C22.6249 4.21573 22.6262 4.21698 22.6287 4.21977C22.6261 4.21725 22.6249 4.21586 22.6249 4.2158ZM22.945 4.86903C23.3035 5.88995 23.6509 7.97478 23.4891 11.8568C23.2527 17.5324 23.4563 22.469 24.7052 25.8842C25.3448 27.6333 26.3391 29.2109 27.9084 30.2005C29.5172 31.2151 31.4002 31.4056 33.3777 31.0101C34.5729 30.7711 35.3479 29.6085 35.1089 28.4134C34.8699 27.2183 33.7073 26.4432 32.5122 26.6822C31.3371 26.9172 30.6783 26.7294 30.2627 26.4673C29.8074 26.1802 29.2943 25.5826 28.8503 24.3683C27.9318 21.8568 27.6625 17.7141 27.8989 12.0405C28.0916 7.41699 27.6572 4.40834 26.7569 2.55511C26.2924 1.59895 25.6052 0.751506 24.6181 0.304581C23.8183 -0.0575599 23.0072 -0.0711808 22.303 0.129652C21.52 0.201488 20.8709 0.574475 20.3964 0.995787C19.8298 1.49892 19.3889 2.16736 19.0253 2.83764C18.428 3.93905 17.8141 5.47898 17.1393 7.45635C16.9945 6.90704 16.8306 6.3345 16.6325 5.79629C16.1033 4.35868 15.0587 2.44768 12.658 2.04801C10.9825 1.76906 9.43735 2.28691 8.15421 3.10929C6.88529 3.92256 5.75525 5.10167 4.77475 6.41308C2.81132 9.03917 1.17658 12.5619 0.100077 16.0246C-0.261744 17.1885 0.388417 18.4253 1.55225 18.7871C2.71609 19.1489 3.95288 18.4987 4.3147 17.3349C5.28736 14.2062 6.72638 11.1735 8.30959 9.05595C9.10242 7.99554 9.86392 7.25581 10.5358 6.82519C11.1935 6.40368 11.6384 6.3526 11.9332 6.40168C11.9902 6.41117 12.0025 6.41392 12.0568 6.47473C12.1542 6.58365 12.3079 6.82453 12.4906 7.32087C12.6715 7.81238 12.8283 8.40177 13.0157 9.1426C13.0341 9.21556 13.0528 9.28996 13.0719 9.36563C13.2363 10.018 13.4244 10.7649 13.6567 11.5021C13.8018 11.9714 14.0357 12.552 14.3924 13.0734C14.693 13.5127 15.4246 14.4107 16.6887 14.5313C18.0985 14.6659 19.0488 13.7607 19.5427 13.0885C20.0621 12.3816 20.4837 11.4202 20.858 10.2633C21.7226 7.59099 22.3801 5.90975 22.905 4.94184C22.9186 4.91679 22.932 4.89252 22.945 4.86903ZM15.9599 10.5088C15.9599 10.5088 15.9608 10.5076 15.9627 10.5054C15.9608 10.5078 15.9599 10.5088 15.9599 10.5088ZM18.0341 10.5798C18.0369 10.5836 18.0371 10.5842 18.0349 10.581C18.0346 10.5806 18.0344 10.5802 18.0341 10.5798Z" fill="#00B368"/>
<path fill-rule="evenodd" clip-rule="evenodd" d="M32.9115 8.02637C34.1202 8.18305 34.973 9.28988 34.8163 10.4985C34.6396 11.8617 34.4264 14.0491 34.3647 16.136C34.3338 17.1803 34.342 18.1628 34.4042 18.9861C34.4704 19.8618 34.5854 20.3647 34.6684 20.5662C35.1324 21.6932 34.595 22.983 33.468 23.4471C32.3411 23.9111 31.0513 23.3737 30.5872 22.2467C30.2288 21.3764 30.0772 20.2991 30.0031 19.3186C29.9251 18.2859 29.9195 17.1365 29.953 16.0055C30.02 13.7419 30.2482 11.4053 30.4393 9.93116C30.596 8.72249 31.7028 7.86969 32.9115 8.02637Z" fill="#00B368"/>
<path fill-rule="evenodd" clip-rule="evenodd" d="M48.7796 9.77989C50.265 10.7448 51.3851 12.3524 51.3851 14.4756C51.3851 14.5252 51.3835 14.5744 51.3803 14.6232C51.4171 14.7228 51.4441 14.813 51.4635 14.8834C51.6178 15.4437 51.7171 16.3609 51.7577 17.3684C51.8431 19.4872 51.6969 22.7719 50.7512 26.1389C49.8073 29.4998 48.0107 33.1327 44.6524 35.6572C41.241 38.2217 36.5265 39.412 30.2393 38.4349C29.035 38.2478 28.2104 37.1198 28.3976 35.9154C28.5847 34.7111 29.7128 33.8865 30.9171 34.0737C36.2944 34.9094 39.7372 33.8305 42.0004 32.1292C44.3167 30.3879 45.7121 27.7584 46.5021 24.9456C46.7747 23.9747 46.9686 23.0047 47.1025 22.0768C46.2345 22.5048 45.2981 22.7955 44.3575 22.9255C42.6607 23.16 40.7197 22.8932 39.1605 21.6542C37.5479 20.3728 36.7257 18.3582 36.7257 15.8943C36.7257 13.6029 37.6334 11.7569 39.081 10.4915C40.4772 9.27103 42.2527 8.69122 43.9235 8.59116C45.5852 8.49164 47.354 8.85382 48.7796 9.77989ZM47.0354 15.005C46.9937 14.8354 46.9715 14.6581 46.9715 14.4756C46.9715 14.0741 46.8109 13.7641 46.3752 13.4811C45.8797 13.1592 45.0871 12.943 44.1873 12.9969C43.2967 13.0502 42.5107 13.3556 41.9858 13.8145C41.5123 14.2284 41.1393 14.8558 41.1393 15.8943C41.1393 17.3685 41.5978 17.9536 41.9063 18.1987C42.2682 18.4863 42.8887 18.673 43.7533 18.5535C44.6131 18.4346 45.4868 18.0343 46.1133 17.4788C46.735 16.9274 46.9715 16.3652 46.9715 15.8943C46.9715 15.7014 46.9769 15.5066 46.993 15.3247C46.9932 15.3216 46.9935 15.3181 46.9939 15.3142C46.9982 15.2639 47.0079 15.1511 47.0354 15.005Z" fill="#00B368"/>
</svg>
