<svg width="36" height="41" viewBox="0 0 36 41" fill="none" xmlns="http://www.w3.org/2000/svg">
<g clip-path="url(#clip0_1046_6491)">
<path d="M15.5 6.61719C15.5 8.6875 13.8203 10.3672 11.75 10.3672C9.67969 10.3672 8 8.6875 8 6.61719C8 4.54688 9.67969 2.86719 11.75 2.86719C13.8203 2.86719 15.5 4.54688 15.5 6.61719ZM8.13281 22.7109C8.61719 22.5313 9.05469 22.2187 9.30469 21.7578L12.4297 16.1406C13.5547 14.1172 15.6875 12.8594 18 12.8594C20.3125 12.8594 22.4453 14.1172 23.5703 16.1406L26.6953 21.7578C26.9453 22.2109 27.3828 22.5313 27.8672 22.7109C30.8594 23.8047 33 26.6797 33 30.0547C33 34.3672 29.5 37.8672 25.1875 37.8672C23.5312 37.8672 22 37.3516 20.7422 36.4766C19.3828 35.5391 16.6172 35.5391 15.2656 36.4766C14 37.3516 12.4688 37.8672 10.8125 37.8672C6.5 37.8672 3 34.3672 3 30.0547C3 26.6797 5.14062 23.8047 8.13281 22.7109ZM24.25 10.3672C22.1797 10.3672 20.5 8.6875 20.5 6.61719C20.5 4.54688 22.1797 2.86719 24.25 2.86719C26.3203 2.86719 28 4.54688 28 6.61719C28 8.6875 26.3203 10.3672 24.25 10.3672ZM35.5 15.3672C35.5 17.4375 33.8203 19.1172 31.75 19.1172C29.6797 19.1172 28 17.4375 28 15.3672C28 13.2969 29.6797 11.6172 31.75 11.6172C33.8203 11.6172 35.5 13.2969 35.5 15.3672ZM4.25 19.1172C2.17969 19.1172 0.5 17.4375 0.5 15.3672C0.5 13.2969 2.17969 11.6172 4.25 11.6172C6.32031 11.6172 8 13.2969 8 15.3672C8 17.4375 6.32031 19.1172 4.25 19.1172Z" fill="black"/>
</g>
<defs>
<clipPath id="clip0_1046_6491">
<rect width="35" height="40" fill="white" transform="translate(0.5 0.367188)"/>
</clipPath>
</defs>
</svg>
