<svg width="32" height="32" viewBox="0 0 32 32" fill="none" xmlns="http://www.w3.org/2000/svg">
<rect width="32" height="32" rx="16" fill="#00B368"/>
<path d="M15.4852 8.37988C17.1493 8.37988 18.4533 8.73988 19.3973 9.45988C20.3573 10.1639 20.8373 11.1639 20.8373 12.4599C20.8373 13.0519 20.7253 13.5639 20.5013 13.9959C20.2773 14.4279 19.9893 14.7879 19.6373 15.0759C19.3013 15.3479 18.9733 15.5399 18.6533 15.6519C19.0853 15.7959 19.4933 16.0199 19.8773 16.3239C20.2773 16.6279 20.5973 17.0199 20.8373 17.4999C21.0933 17.9799 21.2213 18.5639 21.2213 19.2519C21.2213 20.1959 20.9732 20.9959 20.4773 21.6519C19.9973 22.2919 19.3333 22.7799 18.4853 23.1159C17.6373 23.4519 16.6533 23.6199 15.5333 23.6199C14.5413 23.6199 13.6933 23.5239 12.9893 23.3319C12.2853 23.1399 11.7413 22.8839 11.3573 22.5639C10.9733 22.2279 10.7812 21.8599 10.7812 21.4599C10.7812 21.1399 10.8612 20.8599 11.0212 20.6199C11.1812 20.3799 11.3812 20.1959 11.6212 20.0679C11.9893 20.3239 12.4613 20.5799 13.0373 20.8359C13.6133 21.0919 14.3572 21.2199 15.2692 21.2199C16.1973 21.2199 16.9253 21.0359 17.4532 20.6679C17.9973 20.2839 18.2692 19.7399 18.2692 19.0359C18.2692 18.3959 18.0293 17.8919 17.5493 17.5239C17.0853 17.1399 16.3733 16.9479 15.4133 16.9479H13.3012C13.2053 16.8199 13.1252 16.6599 13.0612 16.4679C12.9972 16.2599 12.9653 16.0279 12.9653 15.7719C12.9653 15.5159 12.9972 15.2839 13.0612 15.0759C13.1252 14.8679 13.2053 14.6999 13.3012 14.5719H15.3173C16.2293 14.5719 16.8773 14.4039 17.2613 14.0679C17.6613 13.7319 17.8612 13.2759 17.8612 12.6999C17.8612 12.0919 17.6212 11.6199 17.1412 11.2839C16.6772 10.9479 16.0052 10.7799 15.1252 10.7799C14.4212 10.7799 13.7973 10.8759 13.2532 11.0679C12.7092 11.2599 12.2613 11.4839 11.9093 11.7399C11.7012 11.6119 11.5173 11.4359 11.3573 11.2119C11.2133 10.9719 11.1413 10.7079 11.1413 10.4199C11.1413 10.0039 11.3253 9.65188 11.6933 9.36388C12.0613 9.05988 12.5733 8.81988 13.2293 8.64388C13.8853 8.46788 14.6372 8.37988 15.4852 8.37988Z" fill="white"/>
</svg>
