<svg width="32" height="32" viewBox="0 0 32 32" fill="none" xmlns="http://www.w3.org/2000/svg">
<rect width="32" height="32" rx="16" fill="#00B368"/>
<path d="M19.2992 18.9884H16.3232V11.5244L13.5872 12.6284C13.3632 12.5164 13.1552 12.3484 12.9632 12.1244C12.7872 11.9004 12.6992 11.6044 12.6992 11.2364C12.6992 10.5324 13.1232 10.0284 13.9712 9.72441L17.0192 8.52441H17.6912C18.1872 8.52441 18.5792 8.66841 18.8672 8.95641C19.1552 9.24441 19.2992 9.64441 19.2992 10.1564V18.9884ZM16.3232 16.9484H19.2992V23.2844C19.1712 23.3324 18.9872 23.3724 18.7472 23.4044C18.5072 23.4524 18.2432 23.4764 17.9552 23.4764C17.3952 23.4764 16.9792 23.3724 16.7072 23.1644C16.4512 22.9564 16.3232 22.5964 16.3232 22.0844V16.9484Z" fill="white"/>
</svg>
