<svg width="16" height="15" viewBox="0 0 16 15" fill="none" xmlns="http://www.w3.org/2000/svg">
<path d="M15.2675 3.83499C15.093 3.17804 14.5789 2.66065 13.9262 2.48507C12.7432 2.16602 7.99926 2.16602 7.99926 2.16602C7.99926 2.16602 3.25537 2.16602 2.07228 2.48507C1.41959 2.66068 0.905535 3.17804 0.731063 3.83499C0.414062 5.02574 0.414062 7.51013 0.414062 7.51013C0.414062 7.51013 0.414062 9.99452 0.731063 11.1853C0.905535 11.8422 1.41959 12.338 2.07228 12.5136C3.25537 12.8327 7.99926 12.8327 7.99926 12.8327C7.99926 12.8327 12.7431 12.8327 13.9262 12.5136C14.5789 12.338 15.093 11.8422 15.2675 11.1853C15.5845 9.99452 15.5845 7.51013 15.5845 7.51013C15.5845 7.51013 15.5845 5.02574 15.2675 3.83499ZM6.44773 9.76577V5.25449L10.4127 7.51018L6.44773 9.76577Z" fill="#3D9A51"/>
</svg>
